<svg xmlns="http://www.w3.org/2000/svg" version="1" width="32" height="64" viewBox="47 0 10.000000 115.000000" fill="#aaa">
  <path fill="orange" d="M12 8.8c0 .4 1.8 2.6 4.1 4.7l4 4-3.8 1.7c-3.8 1.7-3.8 1.7 12.3 1.8 12.2 0 17-.4 19.8-1.5 2-.8 3.6-1.9 3.6-2.3 0-.4-1.9-2.7-4.3-5L43.4 8H27.7c-8.6 0-15.7.4-15.7.8z"/>
  <path fill="orange" d="M50 8.8c0 .4 1.8 2.6 4.1 4.7l4 4-3.8 1.7c-3.8 1.7-3.7 1.7 12.7 1.8 12.9 0 17.4-.4 20.8-1.7l4.3-1.6-4.8-4.9L82.6 8H66.3c-9 0-16.3.4-16.3.8z"/><path d="M89 8.8c0 .4 1.8 2.6 4.1 4.7l4 4-3.8 1.7-3.8 1.7 12.8.1H115V8h-13c-7.1 0-13 .4-13 .8zM6 23.9c0 .5 2 2.7 4.5 5L15 33h15.5c8.5 0 15.5-.4 15.5-.9s-2-2.7-4.5-5L37 23H21.5C13 23 6 23.4 6 23.9zM44 23.9c0 .5 2 2.7 4.5 5L53 33h33.4l-4.9-5-4.9-5H60.3c-9 0-16.3.4-16.3.9zM83 23.4c0 .3 2.1 2.5 4.8 5l4.7 4.6H115V23H99c-8.8 0-16 .2-16 .4zM0 38.9c0 3.2.6 4.4 3.5 7L7.1 49h16.4c9.1 0 16.5-.3 16.5-.6s-3-3.5-6.7-7C26.7 35.1 26.5 35 21 35l-5.5.1 5 4.4 5 4.5H20c-5.1 0-5.9-.3-10.7-4.5C6.5 37 3.2 35 2.1 35 .3 35 0 35.6 0 38.9zM31.9 36.9c.6 1 3.8 4.2 7.2 7l6.1 5.1h17.6l17.7-.1-4-3.5C65.4 35.4 64.6 35 58.9 35l-5.4.1 5 4.4 5 4.5H58c-5.1 0-5.9-.3-10.7-4.5-4.8-4.2-5.5-4.5-10.7-4.5-5.3 0-5.6.1-4.7 1.9zM69 35.4c0 .3 3.5 3.4 7.7 7l7.6 6.6h15.4c18 0 18.3-.2 9.7-8.5-5.4-5.4-5.7-5.5-11.2-5.5h-5.7l5 4.5 5 4.4-5.3.1c-4.9 0-5.8-.4-10.6-4.5C81.5 35.2 81 35 75.1 35c-3.3 0-6.1.2-6.1.4zM11 51.2c0 .3 2 1.8 4.5 3.2 2.5 1.5 4.5 2.8 4.5 3 0 .2-2.2 1.8-5 3.6-2.7 1.8-5 3.3-5 3.4 0 0 7.8 0 17.2-.2l17.3-.2 3.3-3.3 3.2-3.3-3.3-3.2-3.4-3.3-16.6-.2c-9.2-.1-16.7.1-16.7.5z"/><path d="M49 51.2c0 .3 2 1.8 4.5 3.2 2.5 1.5 4.5 2.8 4.5 3 0 .2-2.2 1.8-5 3.6-2.7 1.8-5 3.3-5 3.4 0 0 8 0 17.7-.2l17.8-.2 3.3-3.3 3.2-3.3-3.3-3.2-3.4-3.3-17.1-.2c-9.5-.1-17.2.1-17.2.5z"/><path d="M88 51c0 .3 2.1 1.8 4.7 3.4l4.8 2.8-3 2.4c-1.7 1.3-3.8 2.7-4.7 3-3.4 1-1.8 2 3 1.8 2.6-.1 8.6-.3 13.5-.3l8.7-.1V51.1l-13.5-.3c-7.4-.2-13.5-.1-13.5.2zM3.5 69.1C.6 71.7 0 72.9 0 76.1 0 79.4.3 80 2.1 80c1.1 0 4.5-2 7.3-4.5 4.9-4.1 5.8-4.5 10.7-4.5h5.4l-5 4.5-5 4.4 5.5.1c5.5 0 5.7-.1 12.3-6.4 3.7-3.5 6.7-6.7 6.7-7 0-.3-7.4-.6-16.5-.6H7.1l-3.6 3.1zM39.1 71.1c-3.4 2.8-6.6 6-7.2 7-.9 1.8-.6 1.9 4.7 1.9 5.2 0 6-.3 10.8-4.5 4.9-4.1 5.8-4.5 10.7-4.5h5.4l-5 4.5-5 4.4 5.4.1c5.1 0 5.8-.3 12.2-5.5 11-9.1 11.6-8.5-8.4-8.5H45.2l-6.1 5.1zM76.7 72.6c-4.2 3.6-7.7 6.7-7.7 7 0 .2 2.8.4 6.3.4 6 0 6.5-.2 11.4-4.5 4.7-4.2 5.5-4.5 10.5-4.5l5.3.1-5 4.4-4.9 4.5h5.7c5.7 0 5.9-.1 11.2-5.5 8.3-8.4 8.2-8.5-9.8-8.5H84.3l-7.6 6.6zM10.6 86.1c-2.5 2.2-4.6 4.5-4.6 5s6.8.9 15.5.9H37l4.5-4.1c2.5-2.3 4.5-4.5 4.5-5s-6.9-.9-15.4-.9H15.3l-4.7 4.1zM48.6 86.1c-2.5 2.2-4.6 4.5-4.6 5s7.1.9 16.3.9h16.3l4.9-5 4.9-5H53.3l-4.7 4.1zM87.8 86.6c-2.7 2.5-4.8 4.7-4.8 5 0 .2 7.2.4 16 .4h16V82H92.5l-4.7 4.6zM16.3 95.8l3.8 1.7-4 4c-2.3 2.1-4.1 4.3-4.1 4.7 0 .4 7.1.8 15.7.8h15.7l4.3-4.2c2.4-2.3 4.3-4.6 4.3-5 0-.4-1.6-1.5-3.6-2.3-2.8-1.1-7.6-1.5-19.8-1.5-16.1.1-16.1.1-12.3 1.8z"/><path d="M54.3 95.8l3.8 1.7-4.1 4c-2.2 2.1-4 4.3-4 4.7 0 .4 7.3.8 16.3.8h16.3l4.7-4.8 4.8-4.9-4.3-1.6C84.3 94.3 80 94 67 94.1c-16.3 0-16.5.1-12.7 1.7z"/><path d="M93.3 95.8l3.8 1.7-4 4c-2.3 2.1-4.1 4.3-4.1 4.7 0 .4 5.9.8 13 .8h13V94h-12.7l-12.8.1 3.8 1.7z"/></svg>
